<svg xmlns="http://www.w3.org/2000/svg" width="338.309" height="60.706" viewBox="0 0 338.309 60.706">
  <g id="logo_row" transform="translate(-32.635 -84.017)">
    <g id="グループ_15" data-name="グループ 15" transform="translate(32.635 84.017)">
      <g id="グループ_13" data-name="グループ 13">
        <path id="パス_19" data-name="パス 19" d="M43.312,100.452H58.759V84.58H69.44V125.7H58.759v-16.86H43.312V125.7H32.634V84.58H43.312Z" transform="translate(-32.634 -83.22)" fill="#fff"/>
        <path id="パス_20" data-name="パス 20" d="M62.775,84.58V125.7H52.094V84.58Z" transform="translate(-5.069 -83.22)" fill="#fff"/>
        <path id="パス_21" data-name="パス 21" d="M82.024,108.839,94.94,125.7H81.623L71.558,109.878h-.133V125.7H60.744V84.58H76.722a18.8,18.8,0,0,1,7.433,1.356,10.891,10.891,0,0,1,5.007,4.21,12.62,12.62,0,0,1,1.863,7.083,13.779,13.779,0,0,1-1.037,5.355,10.428,10.428,0,0,1-7.965,6.256Zm-10.6-16.084v10.253h1.037a16,16,0,0,0,3.729-.372,5.8,5.8,0,0,0,2.663-1.544,5.479,5.479,0,0,0,0-6.421,5.825,5.825,0,0,0-2.663-1.544,15.462,15.462,0,0,0-3.729-.372Z" transform="translate(7.184 -83.22)" fill="#fff"/>
        <path id="パス_22" data-name="パス 22" d="M99.311,84.017a24.361,24.361,0,0,1,8.576,1.52,23.308,23.308,0,0,1,7.3,4.42,21.725,21.725,0,0,1,5.036,6.766,18.971,18.971,0,0,1,1.837,8.441,24.578,24.578,0,0,1-1.624,9.055,21.487,21.487,0,0,1-4.794,7.271,21.218,21.218,0,0,1-3.41,2.8,20.88,20.88,0,0,1-3.806,1.945,26.211,26.211,0,0,1-18.165,0,20.541,20.541,0,0,1-7.245-4.741,20.163,20.163,0,0,1-2.675-3.236,24.112,24.112,0,0,1-2.119-4.036,24.456,24.456,0,0,1-1.648-9.055,20.164,20.164,0,0,1,.464-4.34,19.276,19.276,0,0,1,1.4-4.1,21.764,21.764,0,0,1,5.007-6.766,22.868,22.868,0,0,1,7.38-4.42A23.549,23.549,0,0,1,99.311,84.017Zm0,10.362A11.366,11.366,0,0,0,93.533,95.9a11.841,11.841,0,0,0-4.263,3.994,10.2,10.2,0,0,0-1.571,5.326A12.984,12.984,0,0,0,89.27,111.5a11.227,11.227,0,0,0,4.21,4.42,11.532,11.532,0,0,0,5.831,1.573,11.361,11.361,0,0,0,5.833-1.573,11,11,0,0,0,4.207-4.42,12.717,12.717,0,0,0,1.571-6.285,9.944,9.944,0,0,0-1.571-5.326,11.879,11.879,0,0,0-4.26-3.994A11.286,11.286,0,0,0,99.311,94.379Z" transform="translate(29.6 -84.017)" fill="#fff"/>
      </g>
      <g id="グループ_14" data-name="グループ 14" transform="translate(158.957)">
        <path id="パス_23" data-name="パス 23" d="M129.894,86.205v12.81a11.157,11.157,0,0,0-4.1-3.383,12.438,12.438,0,0,0-5.273-1.143,10.54,10.54,0,0,0-5.672,1.518,9.963,9.963,0,0,0-3.941,4.1,12.018,12.018,0,0,0-1.358,5.78,11.641,11.641,0,0,0,1.411,5.778,9.72,9.72,0,0,0,3.941,3.994,11.932,11.932,0,0,0,5.778,1.411,11.588,11.588,0,0,0,5.06-1.145,13.162,13.162,0,0,0,4.156-3.221v12.81q-3.117.957-5.408,1.491a19.136,19.136,0,0,1-4.021.425,23.317,23.317,0,0,1-8.255-1.571,20.748,20.748,0,0,1-2.518-1.172,25.957,25.957,0,0,1-2.356-1.464,25.454,25.454,0,0,1-2.317-1.837q-6.6-5.966-6.6-15.555a21.419,21.419,0,0,1,1.6-8.122,20.809,20.809,0,0,1,4.475-6.923,23.367,23.367,0,0,1,4.579-3.6,21.741,21.741,0,0,1,11.053-3.064A25.425,25.425,0,0,1,129.894,86.205Z" transform="translate(-98.414 -83.861)" fill="#fff"/>
        <path id="パス_24" data-name="パス 24" d="M136.938,84.017a24.4,24.4,0,0,1,8.576,1.518,23.354,23.354,0,0,1,7.3,4.422,21.774,21.774,0,0,1,5.034,6.764,18.989,18.989,0,0,1,1.837,8.443,24.528,24.528,0,0,1-1.624,9.055,21.9,21.9,0,0,1-8.2,10.067,20.665,20.665,0,0,1-3.808,1.943,26.167,26.167,0,0,1-18.162,0,20.535,20.535,0,0,1-7.245-4.739,20.27,20.27,0,0,1-2.675-3.236,23.935,23.935,0,0,1-2.117-4.036,24.418,24.418,0,0,1-1.653-9.055,20.357,20.357,0,0,1,.466-4.342,19.24,19.24,0,0,1,1.4-4.1,21.613,21.613,0,0,1,5.007-6.764,22.906,22.906,0,0,1,7.378-4.422A23.6,23.6,0,0,1,136.938,84.017Zm0,10.36a11.368,11.368,0,0,0-5.778,1.52,11.861,11.861,0,0,0-4.263,3.994,10.219,10.219,0,0,0-1.571,5.326A13.011,13.011,0,0,0,126.9,111.5a11.244,11.244,0,0,0,4.21,4.42,11.53,11.53,0,0,0,5.831,1.571,11.353,11.353,0,0,0,5.833-1.571,11,11,0,0,0,4.207-4.42,12.691,12.691,0,0,0,1.571-6.285,9.923,9.923,0,0,0-1.571-5.326,11.858,11.858,0,0,0-4.26-3.994A11.288,11.288,0,0,0,136.938,94.377Z" transform="translate(-76.062 -84.017)" fill="#fff"/>
        <path id="パス_25" data-name="パス 25" d="M136.411,125.7V84.579h15.154a21.522,21.522,0,0,1,8.1,1.573,19.991,19.991,0,0,1,6.684,4.367,20.766,20.766,0,0,1,5.713,10.427,20.786,20.786,0,0,1,.413,4.193,19.659,19.659,0,0,1-2.849,10.362A20.4,20.4,0,0,1,162,122.982a22.313,22.313,0,0,1-5.06,2.04,21.226,21.226,0,0,1-5.379.679ZM147.09,93.634v23.01h2.424a14.237,14.237,0,0,0,5.993-1.252,9.54,9.54,0,0,0,4.26-3.808,12.45,12.45,0,0,0,1.571-6.445q0-5.4-3.221-8.467a10.9,10.9,0,0,0-2.371-1.665,11.713,11.713,0,0,0-2.822-1.025,14.773,14.773,0,0,0-3.3-.348Z" transform="translate(-44.592 -83.221)" fill="#fff"/>
        <path id="パス_26" data-name="パス 26" d="M178.125,93.634h-12.73v6.873h12.063v9.055H165.395v7.083h12.73V125.7H154.714V84.579h23.411Z" transform="translate(-18.666 -83.221)" fill="#fff"/>
        <path id="パス_27" data-name="パス 27" d="M173.72,96.768a6.2,6.2,0,0,1,3.221.853,6.5,6.5,0,0,1,3.17,5.512,5.985,5.985,0,0,1-.88,3.224,5.5,5.5,0,0,1-2.291,2.291,5.975,5.975,0,0,1-3.221.877,5.883,5.883,0,0,1-3.17-.877,5.6,5.6,0,0,1-2.344-2.291,6.345,6.345,0,0,1,5.514-9.589Z" transform="translate(-0.76 -65.955)" fill="#fff"/>
      </g>
    </g>
    <rect id="長方形_7" data-name="長方形 7" width="338" height="5" transform="translate(32.788 139.723)" fill="#0cf"/>
  </g>
</svg>
