<svg xmlns="http://www.w3.org/2000/svg" width="54.63" height="50" viewBox="0 0 54.63 50">
  <g id="logo" transform="translate(-30 -38)">
    <g id="グループ_1" data-name="グループ 1" transform="translate(30.727 38)">
      <path id="パス_1" data-name="パス 1" d="M35.055,44.392h5.372v-5.52H44.14v14.3H40.427V47.309H35.055v5.863H31.341v-14.3h3.714Z" transform="translate(-31.341 -38.399)" fill="#fff"/>
      <path id="パス_2" data-name="パス 2" d="M65.232,38.872v14.3H61.518v-14.3Z" transform="translate(-45.164 -38.399)" fill="#fff"/>
      <path id="パス_3" data-name="パス 3" d="M82.331,47.309l4.492,5.863H82.192l-3.5-5.5h-.047v5.5H74.931v-14.3h5.557a6.522,6.522,0,0,1,2.584.472,3.781,3.781,0,0,1,1.741,1.463,4.384,4.384,0,0,1,.649,2.464,4.78,4.78,0,0,1-.361,1.862,3.628,3.628,0,0,1-2.77,2.176Zm-3.686-5.594v3.566h.361a5.536,5.536,0,0,0,1.3-.13,2.021,2.021,0,0,0,.926-.537,1.9,1.9,0,0,0,0-2.232,2.031,2.031,0,0,0-.926-.538,5.4,5.4,0,0,0-1.3-.13Z" transform="translate(-51.308 -38.399)" fill="#fff"/>
      <path id="パス_4" data-name="パス 4" d="M107.379,38a8.472,8.472,0,0,1,2.983.528,8.1,8.1,0,0,1,2.537,1.537,7.546,7.546,0,0,1,1.751,2.352,6.592,6.592,0,0,1,.639,2.936,8.525,8.525,0,0,1-.565,3.149,7.624,7.624,0,0,1-2.852,3.5,7.26,7.26,0,0,1-1.325.676,9.115,9.115,0,0,1-6.317,0,7.137,7.137,0,0,1-2.519-1.649,7.01,7.01,0,0,1-.931-1.125,8.362,8.362,0,0,1-.736-1.4,8.5,8.5,0,0,1-.574-3.149,7.021,7.021,0,0,1,.162-1.509,6.661,6.661,0,0,1,.486-1.426,7.546,7.546,0,0,1,1.741-2.352,7.952,7.952,0,0,1,2.566-1.537A8.188,8.188,0,0,1,107.379,38Zm0,3.6a3.959,3.959,0,0,0-2.01.528,4.126,4.126,0,0,0-1.482,1.39,3.547,3.547,0,0,0-.546,1.852,4.513,4.513,0,0,0,.546,2.186,3.907,3.907,0,0,0,1.464,1.537,4.014,4.014,0,0,0,2.028.546,3.954,3.954,0,0,0,2.028-.546,3.829,3.829,0,0,0,1.463-1.537,4.417,4.417,0,0,0,.546-2.186,3.457,3.457,0,0,0-.546-1.852,4.128,4.128,0,0,0-1.482-1.39A3.928,3.928,0,0,0,107.379,41.6Z" transform="translate(-62.548 -38)" fill="#fff"/>
    </g>
    <g id="グループ_2" data-name="グループ 2" transform="translate(30.366 57.047)">
      <path id="パス_5" data-name="パス 5" d="M40.059,73.913v3.818a3.317,3.317,0,0,0-1.223-1.008,3.7,3.7,0,0,0-1.572-.341,3.148,3.148,0,0,0-1.691.453A2.974,2.974,0,0,0,34.4,78.057a3.585,3.585,0,0,0-.4,1.723,3.471,3.471,0,0,0,.421,1.722,2.894,2.894,0,0,0,1.175,1.191,3.565,3.565,0,0,0,1.722.421,3.456,3.456,0,0,0,1.509-.341,3.937,3.937,0,0,0,1.238-.96v3.818q-.929.285-1.612.444a5.739,5.739,0,0,1-1.2.127,6.963,6.963,0,0,1-2.461-.468,6.21,6.21,0,0,1-.75-.349,7.8,7.8,0,0,1-.7-.437,7.621,7.621,0,0,1-.691-.548,5.954,5.954,0,0,1-1.969-4.636,6.385,6.385,0,0,1,.476-2.421,6.209,6.209,0,0,1,1.334-2.064,6.935,6.935,0,0,1,1.366-1.071,6.7,6.7,0,0,1,1.6-.683,6.627,6.627,0,0,1,1.691-.23A7.571,7.571,0,0,1,40.059,73.913Z" transform="translate(-30.675 -73.214)" fill="#fff"/>
      <path id="パス_6" data-name="パス 6" d="M58.43,73.147a7.268,7.268,0,0,1,2.556.453,6.955,6.955,0,0,1,2.175,1.318,6.483,6.483,0,0,1,1.5,2.017,5.648,5.648,0,0,1,.547,2.516,7.306,7.306,0,0,1-.484,2.7A6.391,6.391,0,0,1,63.3,84.317a6.318,6.318,0,0,1-1.016.833,6.174,6.174,0,0,1-1.135.579,7.8,7.8,0,0,1-5.414,0,6.114,6.114,0,0,1-2.159-1.413,5.994,5.994,0,0,1-.8-.964,7.168,7.168,0,0,1-.631-1.2,7.289,7.289,0,0,1-.492-2.7,6.031,6.031,0,0,1,.139-1.294,5.681,5.681,0,0,1,.417-1.223A6.462,6.462,0,0,1,53.7,74.918,6.829,6.829,0,0,1,55.9,73.6,7.035,7.035,0,0,1,58.43,73.147Zm0,3.089a3.39,3.39,0,0,0-1.723.453,3.538,3.538,0,0,0-1.27,1.191,3.046,3.046,0,0,0-.468,1.588,3.876,3.876,0,0,0,.468,1.873,3.35,3.35,0,0,0,1.255,1.317,3.444,3.444,0,0,0,1.739.469,3.389,3.389,0,0,0,1.739-.469,3.281,3.281,0,0,0,1.254-1.317,3.789,3.789,0,0,0,.468-1.873,2.963,2.963,0,0,0-.468-1.588,3.534,3.534,0,0,0-1.27-1.191A3.361,3.361,0,0,0,58.43,76.236Z" transform="translate(-40.283 -73.147)" fill="#fff"/>
      <path id="パス_7" data-name="パス 7" d="M81.179,86.152V73.9H85.7a6.423,6.423,0,0,1,2.413.468,5.959,5.959,0,0,1,1.993,1.3,6.2,6.2,0,0,1,1.7,3.108,6.221,6.221,0,0,1,.123,1.25,5.856,5.856,0,0,1-.849,3.088,6.084,6.084,0,0,1-2.271,2.231,6.671,6.671,0,0,1-1.508.608,6.3,6.3,0,0,1-1.6.2Zm3.183-9.558v6.859h.722a4.251,4.251,0,0,0,1.786-.373,2.848,2.848,0,0,0,1.27-1.135,3.719,3.719,0,0,0,.468-1.921,3.317,3.317,0,0,0-.96-2.524,3.271,3.271,0,0,0-.707-.5A3.527,3.527,0,0,0,86.1,76.7a4.42,4.42,0,0,0-.984-.1Z" transform="translate(-53.809 -73.49)" fill="#fff"/>
      <path id="パス_8" data-name="パス 8" d="M112.485,76.594H108.69v2.048h3.6v2.7h-3.6v2.111h3.795v2.7h-6.978V73.9h6.978Z" transform="translate(-64.953 -73.49)" fill="#fff"/>
      <path id="パス_9" data-name="パス 9" d="M124.205,90.1a1.853,1.853,0,0,1,.961.254,1.94,1.94,0,0,1,.945,1.644,1.775,1.775,0,0,1-.262.96,1.635,1.635,0,0,1-.682.683,1.782,1.782,0,0,1-.961.262,1.752,1.752,0,0,1-.945-.262,1.666,1.666,0,0,1-.7-.683,1.89,1.89,0,0,1,1.643-2.858Z" transform="translate(-72.649 -80.911)" fill="#fff"/>
    </g>
    <rect id="長方形_7" data-name="長方形 7" width="54.63" height="12.963" transform="translate(30 75.037)" fill="#0cf"/>
    <g id="ヒロコード" transform="translate(36.546 77.618)" style="isolation: isolate">
      <g id="グループ_3" data-name="グループ 3" style="isolation: isolate">
        <path id="パス_10" data-name="パス 10" d="M47.855,114.1a24.176,24.176,0,0,1-4.328,1.362v.816c0,.85.208,1.1,1,1.162.217.018.512.026.85.026a18.123,18.123,0,0,0,2.576-.182V118.7c-.78.079-1.691.113-2.49.113-.477,0-.894-.008-1.223-.034-1.371-.087-2.16-.85-2.16-1.978v-5.187h1.449v2.55a17.959,17.959,0,0,0,3.609-1.293Z" transform="translate(-42.078 -111.34)"/>
        <path id="パス_11" data-name="パス 11" d="M63.89,113.058v6.09H57.341v-6.09Zm-1.466,4.719v-3.384H58.772v3.384Z" transform="translate(-49.069 -112)"/>
        <path id="パス_12" data-name="パス 12" d="M80.344,113.09v6.089h-6.2v-1.362h4.727v-3.391H74.142V113.09Z" transform="translate(-56.765 -112.014)"/>
        <path id="パス_13" data-name="パス 13" d="M97.178,116.836v1.457H90.03v-1.457Z" transform="translate(-64.043 -113.73)"/>
        <path id="パス_14" data-name="パス 14" d="M113.538,115.5l-.936,1.2a16.9,16.9,0,0,0-2.793-1.718v3.756h-1.457v-7.633h1.457v2.334A26.22,26.22,0,0,1,113.538,115.5Zm-2.012-3.375a5.687,5.687,0,0,1,.694.962l-.625.4a4.655,4.655,0,0,0-.668-.963Zm.954-.624a6.007,6.007,0,0,1,.72.945l-.616.416a4.655,4.655,0,0,0-.694-.946Z" transform="translate(-72.435 -111.105)"/>
      </g>
    </g>
  </g>
</svg>
