<svg xmlns="http://www.w3.org/2000/svg" width="30" height="30" viewBox="0 0 30 30">
  <g id="ico_sns_instagram" transform="translate(-1707 -206)">
    <rect id="長方形_12" data-name="長方形 12" width="30" height="30" transform="translate(1707 206)" opacity="0"/>
    <path id="instagram_1_" data-name="instagram (1)" d="M10.389,20.379h-.2c-1.6,0-3.073-.037-4.508-.124A6.027,6.027,0,0,1,2.2,18.94,5.576,5.576,0,0,1,.331,15.915a13.4,13.4,0,0,1-.308-3.2C.013,11.97,0,11.089,0,10.192S.013,8.41.023,7.666a13.406,13.406,0,0,1,.308-3.2A5.576,5.576,0,0,1,2.2,1.441,6.027,6.027,0,0,1,5.678.126C7.113.039,8.59,0,10.19,0S13.264.039,14.7.126a6.027,6.027,0,0,1,3.474,1.315,5.575,5.575,0,0,1,1.874,3.025,13.405,13.405,0,0,1,.308,3.2c.01.744.021,1.625.023,2.522v0c0,.9-.013,1.778-.023,2.522a13.4,13.4,0,0,1-.308,3.2,5.575,5.575,0,0,1-1.874,3.025A6.027,6.027,0,0,1,14.7,20.255C13.324,20.338,11.912,20.379,10.389,20.379Zm-.2-1.592c1.571,0,3.014-.036,4.416-.121a4.385,4.385,0,0,0,2.564-.96A4.019,4.019,0,0,0,18.5,15.521a12.2,12.2,0,0,0,.258-2.829c.01-.739.021-1.614.023-2.5s-.013-1.763-.023-2.5A12.2,12.2,0,0,0,18.5,4.859a4.019,4.019,0,0,0-1.337-2.185,4.386,4.386,0,0,0-2.564-.96c-1.4-.085-2.844-.125-4.412-.121s-3.014.036-4.415.121a4.386,4.386,0,0,0-2.564.96A4.019,4.019,0,0,0,1.873,4.859a12.2,12.2,0,0,0-.258,2.829c-.01.74-.021,1.615-.023,2.5s.013,1.761.023,2.5a12.2,12.2,0,0,0,.258,2.829A4.019,4.019,0,0,0,3.21,17.706a4.386,4.386,0,0,0,2.564.96C7.176,18.751,8.62,18.791,10.187,18.787Zm-.038-3.622a4.975,4.975,0,1,1,4.975-4.975A4.981,4.981,0,0,1,10.149,15.165Zm0-8.358a3.383,3.383,0,1,0,3.383,3.383A3.387,3.387,0,0,0,10.149,6.807Zm5.532-3.184a1.194,1.194,0,1,0,1.194,1.194A1.194,1.194,0,0,0,15.681,3.623Zm0,0" transform="translate(1712 210.999)" fill="#fff"/>
  </g>
</svg>
