<svg xmlns="http://www.w3.org/2000/svg" width="30" height="30" viewBox="0 0 30 30">
  <g id="ico_sns_youtube" transform="translate(-1647 -206)">
    <rect id="長方形_11" data-name="長方形 11" width="30" height="30" transform="translate(1647 206)" opacity="0"/>
    <g id="youtube_2_" data-name="youtube (2)" transform="translate(1650 212)">
      <path id="パス_28" data-name="パス 28" d="M197.651,109.528l-5.273-2.885a.968.968,0,0,0-1.433.85v5.72a.967.967,0,0,0,1.427.853l5.273-2.835a.968.968,0,0,0,.006-1.7Zm-5.307,2.965v-4.275l3.941,2.156Zm0,0" transform="translate(-182.045 -101.558)" fill="#fff" stroke="#fff" stroke-width="0.2"/>
      <path id="パス_29" data-name="パス 29" d="M23.691,4.266V4.255a5.458,5.458,0,0,0-1.052-2.77A3.884,3.884,0,0,0,20.065.28L19.947.265l-.042,0C16.75.032,11.985,0,11.937,0h-.008c-.048,0-4.813.032-8,.261l-.042,0L3.779.279A3.786,3.786,0,0,0,1.222,1.522,5.72,5.72,0,0,0,.178,4.242l0,.024C.168,4.346,0,6.249,0,8.16V9.946c0,1.91.168,3.813.176,3.894v.012a5.4,5.4,0,0,0,1.048,2.736,3.963,3.963,0,0,0,2.658,1.189c.1.011.181.021.238.031l.055.008c1.822.173,7.534.259,7.776.262h.015c.048,0,4.812-.032,7.968-.261l.042,0,.134-.015a3.7,3.7,0,0,0,2.535-1.213,5.719,5.719,0,0,0,1.043-2.72l0-.024c.007-.08.176-1.983.176-3.893V8.16C23.866,6.249,23.7,4.347,23.691,4.266ZM22.468,9.946c0,1.768-.154,3.589-.169,3.756a4.44,4.44,0,0,1-.686,1.937,2.3,2.3,0,0,1-1.651.766l-.149.017c-3.052.221-7.637.255-7.848.256-.237,0-5.865-.09-7.631-.254-.09-.015-.188-.026-.291-.038a2.615,2.615,0,0,1-1.789-.747l-.013-.014a4.029,4.029,0,0,1-.673-1.918c-.011-.126-.17-1.969-.17-3.762V8.16c0-1.766.154-3.585.169-3.756a4.35,4.35,0,0,1,.686-1.938,2.413,2.413,0,0,1,1.686-.8l.114-.014c3.1-.222,7.714-.255,7.88-.256s4.782.034,7.851.256l.123.015a2.5,2.5,0,0,1,1.713.776l.006.006A4.094,4.094,0,0,1,22.3,4.4c.011.119.17,1.966.17,3.763Zm0,0" fill="#fff" stroke="#fff" stroke-width="0.2"/>
    </g>
  </g>
</svg>
