<svg xmlns="http://www.w3.org/2000/svg" width="30" height="30" viewBox="0 0 30 30">
  <g id="ico_sns_facebook" transform="translate(-1767 -206)">
    <rect id="長方形_13" data-name="長方形 13" width="30" height="30" transform="translate(1767 206)" opacity="0"/>
    <path id="facebook" d="M8.776,23.608H5a1.146,1.146,0,0,1-1.145-1.145V13.935H1.645A1.147,1.147,0,0,1,.5,12.79V9.136A1.146,1.146,0,0,1,1.645,7.991H3.851V6.161A6.23,6.23,0,0,1,5.5,1.7,5.934,5.934,0,0,1,9.873,0l2.883,0A1.147,1.147,0,0,1,13.9,1.15V4.542a1.146,1.146,0,0,1-1.145,1.145H10.813c-.592,0-.743.119-.775.155-.053.06-.116.231-.116.7V7.991h2.687a1.164,1.164,0,0,1,.567.144,1.149,1.149,0,0,1,.589,1V12.79a1.146,1.146,0,0,1-1.145,1.145h-2.7v8.527A1.147,1.147,0,0,1,8.776,23.608ZM5.235,22.224h3.3V13.316a.765.765,0,0,1,.765-.765h3.077V9.375H9.3a.765.765,0,0,1-.764-.765V6.545A2.357,2.357,0,0,1,9,4.927,2.346,2.346,0,0,1,10.813,4.3h1.7V1.388l-2.643,0c-2.86,0-4.637,1.831-4.637,4.777V8.61a.765.765,0,0,1-.764.765H1.884v3.176H4.47a.765.765,0,0,1,.764.765ZM12.753,1.389h0Zm0,0" transform="translate(1774.5 209)" fill="#fff"/>
  </g>
</svg>
