<svg xmlns="http://www.w3.org/2000/svg" width="80" height="80" viewBox="0 0 80 80">
  <g id="ico_feature_design" transform="translate(-1542 -1649)">
    <circle id="楕円形_6" data-name="楕円形 6" cx="39" cy="39" r="39" transform="translate(1543 1650)"/>
    <g id="グループ_47" data-name="グループ 47" transform="translate(1274)">
      <g id="楕円形_2" data-name="楕円形 2" transform="translate(268 1649)" fill="rgba(255,255,255,0)" stroke="#fff" stroke-width="4">
        <circle cx="40" cy="40" r="40" stroke="none"/>
        <circle cx="40" cy="40" r="38" fill="none"/>
      </g>
      <g id="pen-tool" transform="translate(285.898 1662.901)">
        <g id="グループ_32" data-name="グループ 32" transform="translate(0.003 0)">
          <path id="パス_43" data-name="パス 43" d="M47.869,12.416l-12-12a1.414,1.414,0,0,0-2,0L27.677,6.6a1.414,1.414,0,0,0,0,2l.613.613L12.1,17.311a1.414,1.414,0,0,0-.681.74L.108,46.329l0,.012c-.015.036-.027.073-.038.11a1.464,1.464,0,0,0-.054.261,1.405,1.405,0,0,0,.294,1.028l.025.032a1.412,1.412,0,0,0,1.353.484c.036-.007.072-.016.108-.026l.023-.006a1.412,1.412,0,0,0,.141-.049L30.232,36.864a1.414,1.414,0,0,0,.74-.681l8.095-16.189.613.613a1.414,1.414,0,0,0,2,0l6.19-6.19A1.415,1.415,0,0,0,47.869,12.416ZM28.682,34.437,7.29,42.994l12.1-12.1a4.245,4.245,0,1,0-2-2l-12.1,12.1L13.846,19.6,30.4,11.325l6.56,6.56Zm-8.877-7.373a1.414,1.414,0,1,1,1.414,1.414A1.416,1.416,0,0,1,19.805,27.063Zm20.874-9.458-1.018-1.018,0,0L31.7,8.625l0,0L30.677,7.6l4.189-4.189,10,10Z" transform="translate(-0.003 0)" fill="#0cf"/>
        </g>
      </g>
    </g>
  </g>
</svg>
