<svg xmlns="http://www.w3.org/2000/svg" width="80" height="80" viewBox="0 0 80 80">
  <g id="ico_feature_wordpress" transform="translate(-2294 -1649)">
    <circle id="楕円形_8" data-name="楕円形 8" cx="39" cy="39" r="39" transform="translate(2295 1650)"/>
    <g id="wordpress" transform="translate(2294 1649)">
      <g id="グループ_35" data-name="グループ 35">
        <path id="パス_31" data-name="パス 31" d="M149.332,106.668h24.762v3.809H149.332Zm0,0" transform="translate(-122.666 -87.62)" fill="#0cf"/>
        <path id="パス_32" data-name="パス 32" d="M39.2,106.668H55.057v3.809H39.2Zm0,0" transform="translate(-32.199 -87.62)" fill="#0cf"/>
        <path id="パス_33" data-name="パス 33" d="M300.266,196.9l20.621-47.425,3.493,1.519-20.621,47.425Zm0,0" transform="translate(-246.647 -122.781)" fill="#0cf"/>
        <path id="パス_34" data-name="パス 34" d="M147.664,288.129l12.7-29.215,3.494,1.519-12.7,29.215Zm0,0" transform="translate(-121.296 -212.679)" fill="#0cf"/>
        <path id="パス_35" data-name="パス 35" d="M166.105,115.237l3.587-1.284,19.85,55.439-3.587,1.284Zm0,0" transform="translate(-136.444 -93.604)" fill="#0cf"/>
        <path id="パス_36" data-name="パス 36" d="M15.824,142.464l3.587-1.284,17.054,47.63-3.587,1.284Zm0,0" transform="translate(-12.998 -115.969)" fill="#0cf"/>
        <path id="パス_37" data-name="パス 37" d="M80.73,115.222l3.587-1.284L100.524,159.2l-3.587,1.284Zm0,0" transform="translate(-66.314 -93.592)" fill="#0cf"/>
        <path id="パス_38" data-name="パス 38" d="M240.707,115.269l3.587-1.284,15.347,42.864-3.587,1.284Zm0,0" transform="translate(-197.724 -93.63)" fill="#0cf"/>
        <path id="パス_39" data-name="パス 39" d="M341.383,104.2l-3.5-1.524a7.177,7.177,0,0,0,.428-2.785,8.337,8.337,0,0,0-.857-3.81l-5.6-10.809a10.476,10.476,0,0,1,7.69-15.143l.6,3.762a6.715,6.715,0,0,0-5.643,6.572,6.574,6.574,0,0,0,.738,3.048l5.6,10.81a12.14,12.14,0,0,1,1.286,5.548A10.907,10.907,0,0,1,341.383,104.2Zm0,0" transform="translate(-271.645 -57.609)" fill="#0cf"/>
      </g>
      <path id="パス_30" data-name="パス 30" d="M40,80A40,40,0,1,1,80,40,40.057,40.057,0,0,1,40,80ZM40,3.809A36.191,36.191,0,1,0,76.191,40,36.236,36.236,0,0,0,40,3.809Zm0,0" fill="#fff"/>
    </g>
  </g>
</svg>
